# xmcd
#
# Track frame offsets: 
#        150
#        19429
#        37326
#        60842
#        78364
#        98146
#        112260
#        133564
#        149578
#        168857
#        188547
#        207868
#        225947
#        239966
#        257594
#        275727
#        292128
#        313932
#
# Disc length: 4404 seconds
#
# Revision: 0
# Processed by: cddbd v1.4PL0 Copyright (c) Steve Scherf et al.
# Submitted via: ExactAudioCopy v0.90b3
#
DISCID=12113212
DTITLE=Robbie Williams - Best Hits '99
DYEAR=1999
DGENRE=Pop
TTITLE0=Win Some Lose Some
TTITLE1=Millenium
TTITLE2=No Regrets
TTITLE3=Lazy Days
TTITLE4=Angels
TTITLE5=Life Thru A Lens
TTITLE6=Strong
TTITLE7=One Of God's Better People
TTITLE8=She's The One
TTITLE9=Karma Killer
TTITLE10=Let Me Entertain You
TTITLE11=Phoenix From The Flames
TTITLE12=Heaven From Here
TTITLE13=South Of The Border
TTITLE14=Love Ain't Here Anymore (U.S. Version)
TTITLE15=How Deep Is Your Love
TTITLE16=Babe
TTITLE17=Prey
EXTD=
EXTT0=
EXTT1=
EXTT2=
EXTT3=
EXTT4=
EXTT5=
EXTT6=
EXTT7=
EXTT8=
EXTT9=
EXTT10=
EXTT11=
EXTT12=
EXTT13=
EXTT14=
EXTT15=
EXTT16=
EXTT17=
PLAYORDER=
